<svg xmlns="http://www.w3.org/2000/svg" fill="none" width="147" height="48" viewBox="0 0 147 48"><g clip-path="url(#a)"><path d="M4.995 1.292c1.057 1.789 2.262 3.43 3.464 5.093 2.65 3.676 5.276 7.396 8.125 10.897.869 1.066 1.853 1.976 3.178 2.314 5.317 1.341 9.83-2.806 10.447-8.409C30.803 5.797 27.416.085 22.045.06 16.455.038 10.865.018 5.275 0 4.57 0 4.57.427 4.79.894c.061.137.13.27.205.398ZM42.69 46.95c-.399-.404-.799-.809-1.204-1.207-2.383-2.37-27.362-24.056-38.52-44.228a4.39 4.39 0 0 1-.18-.396.283.283 0 0 0-.08-.124.253.253 0 0 0-.13-.062c-.207-.033-.276.15-.36.293-.33.557-.466 1.196-.622 1.82C.633 6.971.218 10.982.058 15.02a65.514 65.514 0 0 0 .098 7.309c.234 3.19.712 6.327 1.7 9.354.933 2.857 2.285 5.442 4.474 7.418a10.763 10.763 0 0 0 4.66 2.434c.36.092.414.02.29-.37-.02-.07-.046-.137-.069-.204l-3.48-9.683c-.336-.937-.677-1.871-1.015-2.808a.886.886 0 0 1 .324.371c1.07 2.03 2.133 4.07 3.215 6.096 1.146 2.15 2.42 4.192 4.18 5.827a13.865 13.865 0 0 0 5.336 3.099c1.4.457 2.843.745 4.302.857.118 0 .257.087.34-.034.083-.12-.033-.241-.093-.346a314.98 314.98 0 0 0-1.9-3.211l-5.048-8.448c-1.47-2.45-2.93-4.902-4.384-7.356L11.26 22.42l.075-.045c.052.065.106.125.153.192 1.454 1.952 2.802 3.973 4.183 5.976 1.755 2.55 3.517 5.089 5.436 7.5 1.038 1.305 2.1 2.586 3.242 3.78a32.92 32.92 0 0 0 5.148 4.498 21.805 21.805 0 0 0 3.855 2.128c1.523.65 3.128 1.05 4.76 1.187 1.496.127 3 .027 4.47-.297.103-.024.234-.017.263-.158.029-.14-.083-.172-.148-.228Zm65.727-32.817h-5.786l-2.059 15.81h6.38a4.759 4.759 0 0 0 3.322-1.263c.903-.802 1.487-1.944 1.634-3.193a4.419 4.419 0 0 0-.297-2.37 2.975 2.975 0 0 0-1.493-1.527c1.29-.724 2.03-1.832 2.222-3.322.164-1.242-.113-2.242-.83-3-.718-.76-1.749-1.138-3.093-1.136Zm1.662 11.355a4.552 4.552 0 0 1-.51 1.594c-.212.41-.512.76-.875 1.02a4.084 4.084 0 0 1-.947.487 2.59 2.59 0 0 1-.84.154h-4.36l.841-6.466h4.363c.173.001.346.02.515.054.198.045.39.112.576.201.202.093.387.224.546.387.166.178.31.378.429.597.14.263.226.554.26.854.036.371.036.746 0 1.118Zm.45-7.286a4.247 4.247 0 0 1-.45 1.455 2.47 2.47 0 0 1-.788.894 3.297 3.297 0 0 1-.843.41 2.69 2.69 0 0 1-.79.122h-4.103l.74-5.759h4.12c.198 0 .394.023.588.067.218.052.428.138.623.255.21.125.396.295.544.5a2.2 2.2 0 0 1 .324.846c.078.4.09.81.037 1.214v-.004Zm11.82 1.473a6.58 6.58 0 0 0-.868-.964 3.186 3.186 0 0 0-1.022-.614 3.764 3.764 0 0 0-1.317-.224 5.03 5.03 0 0 0-2.074.448 5.352 5.352 0 0 0-1.75 1.278c-1.109 1.15-1.78 2.65-2.018 4.496-.233 1.757.004 3.207.71 4.35.31.54.744.983 1.262 1.285.518.301 1.1.45 1.69.433a4.188 4.188 0 0 0 2.55-.908 6.268 6.268 0 0 0 1.915-2.392l-.415 3.078h1.77l.186-1.433.385-2.958.97-7.456h-1.77l-.21 1.58Zm-.367 2.813-.115.894c-.194 1.627-.87 3.142-1.93 4.32a6.123 6.123 0 0 1-.235.24c-.706.695-1.436 1.043-2.19 1.041a1.87 1.87 0 0 1-.86-.186 2.007 2.007 0 0 1-.703-.567 3.924 3.924 0 0 1-.812-1.838 7.209 7.209 0 0 1-.03-2.28 6.723 6.723 0 0 1 1.49-3.578c.817-.974 1.732-1.462 2.746-1.462.402 0 .798.098 1.16.289.52.286.942.742 1.208 1.302s.36 1.197.272 1.819v.006Zm10.395-4.635a4.074 4.074 0 0 0-1.77.398 5.128 5.128 0 0 0-1.543 1.14 6.94 6.94 0 0 0-1.194 1.762l.392-3.056h-1.769l-.89 6.832-.654 5.01c.49-.08.948-.315 1.31-.678a2.69 2.69 0 0 0 .724-1.357c.027-.136.045-.274.054-.414l.565-4.305a8.254 8.254 0 0 1 1.965-3.046c.786-.73 1.557-1.096 2.313-1.095.25-.014.498.04.723.158.225.117.418.293.563.513.295.447.38 1.117.257 2.012l-.83 6.33a1.78 1.78 0 0 0 .048.7c.063.227.17.438.314.616.145.18.323.323.524.42.2.1.418.15.638.15l1.088-8.26c.14-1.079-.032-1.986-.513-2.724-.48-.738-1.252-1.108-2.315-1.11Zm14.401.244h-1.522l-6.46 5.756 1.004-7.717a2.71 2.71 0 0 0 .07-.539V15.5c.001-.5-.129-.99-.378-1.412a2.524 2.524 0 0 0-1.023-.974h-.045l-.653 4.997-1.547 11.833h1.77l.596-4.54 1.317-1.174 2.166 3.691a4.17 4.17 0 0 0 1.462 1.484c.596.353 1.266.54 1.946.54l-4.135-7.02 5.43-4.827Zm-8.47-.139ZM46.358 14.44h-6.92L37.8 26.866l-.035.255v.237c-.002.34.06.678.18.993.12.315.296.6.518.843.223.24.488.433.78.564.292.13.605.2.92.2h1.19l.049-.37.525-3.976.208-1.628h1.614l1.32 4.045.123.366c.175.432.456.804.812 1.076.356.272.775.435 1.21.47h3.048l-.598-1.697-1.116-3.16-.656-1.84a5.175 5.175 0 0 0 1.643-1.715 5.921 5.921 0 0 0 .797-2.28c.175-1.375-.117-2.522-.876-3.442-.76-.92-1.792-1.378-3.1-1.375Zm-3.873 6.95.565-4.366h2.02c.213-.013.426.035.615.14.19.105.35.263.463.457.235.4.308.968.208 1.706-.174 1.376-.793 2.064-1.857 2.064h-2.014Zm17-1.846a3.614 3.614 0 0 0-1.297-1.087 3.348 3.348 0 0 0-1.61-.346c-.306 0-.609.03-.909.087a6.15 6.15 0 0 0-.99.282 5.465 5.465 0 0 0-1.02.51 5.373 5.373 0 0 0-.97.805 6.442 6.442 0 0 0-1.513 2.53 8.777 8.777 0 0 0-.416 1.825 7.649 7.649 0 0 0 .02 2.432 4.66 4.66 0 0 0 .635 1.737 3.97 3.97 0 0 0 1.07 1.083 4.1 4.1 0 0 0 1.245.597c.403.11.816.163 1.231.163 1.346 0 2.483-.717 3.41-2.15l-.259 1.944h3.851L63.5 18.333h-3.855l-.162 1.21Zm-.476 3.59-.058.448a7.144 7.144 0 0 1-1.2 3.183 5.107 5.107 0 0 1-.294.38c-.436.515-.896.772-1.38.772-.593 0-1.017-.352-1.272-1.055-.255-.704-.309-1.59-.162-2.66.148-1.16.467-2.085.957-2.78.49-.695 1.044-1.043 1.661-1.044.225.003.447.058.65.163.202.104.38.256.523.443.234.293.407.637.505 1.008.1.37.123.76.07 1.143ZM86.03 19.14a3.269 3.269 0 0 0-1.29-.738 6.18 6.18 0 0 0-1.988-.293c-1.615-.02-3.184.585-4.42 1.706-1.245 1.078-2.079 2.612-2.34 4.31-.262 1.667.115 3.09 1.13 4.268 1.015 1.18 2.36 1.77 4.035 1.77a6.2 6.2 0 0 0 3.037-.748 5.035 5.035 0 0 0 2.077-2.075l-1.028-.87a5.91 5.91 0 0 1-.96.825 3.45 3.45 0 0 1-1.988.61c-1.8 0-2.644-.997-2.533-2.993a.203.203 0 0 1 .056-.127.176.176 0 0 1 .122-.054 10.375 10.375 0 0 0 4.657-1.104c1.246-.596 1.972-1.502 2.178-2.717a1.672 1.672 0 0 0-.12-.867 2.804 2.804 0 0 0-.625-.903Zm-2.25 2.4c-.188.93-1.21 1.487-3.065 1.673l-.685.063a5.511 5.511 0 0 1 .997-2.104c.177-.244.401-.443.658-.582a1.83 1.83 0 0 1 .825-.223c.177-.001.354.02.526.065.152.04.297.104.432.19.09.054.169.13.226.224a.941.941 0 0 1 .087.695Zm11.864-3.43a4.012 4.012 0 0 0-1.271.194 3.44 3.44 0 0 0-1.149.684 5.822 5.822 0 0 0-1.07 1.272l.27-1.927H88.56l-.888 6.747-.549 4.143-.102.735h1.77a2.306 2.306 0 0 0 1.56-.608c.437-.396.73-.946.824-1.552l.02-.147.562-4.248a10.7 10.7 0 0 1 1.342-2.28c.415-.506.845-.76 1.262-.76.806 0 1.102.84.887 2.52l-.492 3.742-.1.76c0 .644.225 1.264.628 1.74.403.475.956.773 1.55.833h1.332l.04-.308.538-4.105.37-2.82c.188-1.39-.037-2.508-.676-3.353-.638-.845-1.57-1.266-2.795-1.263Zm-22.121.223-3.266 7.154-.126-.67a2.314 2.314 0 0 0-2.04.684 2.677 2.677 0 0 0-.74 1.758 2.71 2.71 0 0 0 .597 1.822c.41.502.985.813 1.603.868h.43a2.296 2.296 0 0 0 1.088-.404 2.52 2.52 0 0 0 .787-.897l.11-.237 4.71-10.078h-3.147Zm-6.57 0H64.83l.208 1.024.779 3.84a2.256 2.256 0 0 0 2.108.089 2.44 2.44 0 0 0 .866-.698c.236-.3.405-.655.494-1.037.09-.382.097-.78.021-1.165a2.68 2.68 0 0 0-.456-1.057 2.447 2.447 0 0 0-.84-.734 2.265 2.265 0 0 0-1.055-.262Z" fill="#0B8376"/></g><defs><clipPath id="a"><path d="M0 0h146.781v47.685H0z" fill="#fff"/></clipPath></defs></svg>